# xmcd CD database file
#
# Track frame offsets:
#	150
#	16897
#	36585
#	57842
#	79872
#	98195
#	118190
#	139322
#	157162
#	187165
#
# Disc length: 2735 seconds
#
# Revision: 0
# Processed by: cddbd v1.5PL3 Copyright (c) Steve Scherf et al.
# Submitted via: CDex 1.51
#
DISCID=900aad0a
DTITLE=真璃子 - ハート to ハート
DYEAR=1900
DGENRE=Japanese Pop
TTITLE0=オアシスの涙
TTITLE1=不良少女にもなれなくて
TTITLE2=おさななじみ
TTITLE3=大きくなぁーれ!!
TTITLE4=虹の彼方
TTITLE5=夢飛行 <New Version>
TTITLE6=ハート to ハート
TTITLE7=涙は似合わない
TTITLE8=悲しみのフェスタ <New Version>
TTITLE9=いつも心にいるから
EXTD=
EXTT0=
EXTT1=
EXTT2=
EXTT3=
EXTT4=
EXTT5=
EXTT6=
EXTT7=
EXTT8=
EXTT9=
PLAYORDER=
